<?xml version="1.0" encoding="utf-8"?>
<!-- Svg Vector Icons : http://www.onlinewebfonts.com/icon -->
<!DOCTYPE svg PUBLIC "-//W3C//DTD SVG 1.1//EN" "http://www.w3.org/Graphics/SVG/1.1/DTD/svg11.dtd">
<svg version="1.1" xmlns="http://www.w3.org/2000/svg" xmlns:xlink="http://www.w3.org/1999/xlink" x="0px" y="0px" viewBox="0 0 1000 1000" fill="#1D4ED8" enable-background="new 0 0 1000 1000" xml:space="preserve">
<metadata> Svg Vector Icons : http://www.onlinewebfonts.com/icon </metadata>
<g><g><path d="M447.2,447.2c120.7,0,218.6-97.9,218.6-218.6C665.9,107.9,568,10,447.2,10c-120.7,0-218.6,97.9-218.6,218.6C228.6,349.4,326.5,447.2,447.2,447.2z M551.8,316.1c-9.9,32.9-52.5,57.6-103.6,57.6s-93.7-24.7-103.6-57.6H551.8z M917.7,943l-83.5-83.4c26.4-29.4,42.6-68.1,42.6-110.7c0-91.6-74.3-165.8-165.8-165.8c-91.6,0-165.8,74.3-165.8,165.8c0,91.6,74.3,165.8,165.8,165.8c27,0,52.4-6.6,75-18.1l89,89c5.9,5.9,15.5,5.9,21.3,0l21.3-21.3C923.6,958.4,923.6,948.8,917.7,943z M711.1,854.3c-58.3,0-105.5-47.3-105.5-105.5c0-58.3,47.3-105.5,105.5-105.5c58.3,0,105.5,47.3,105.5,105.5C816.6,807.1,769.4,854.3,711.1,854.3z M507.6,748.8c0,26.1,5.1,50.9,14.1,73.8c-23.2,1-47.9,1.5-74.4,1.5c-210.8,0-313.9-34.4-351.8-51.3c-9.8-4.3-17.6-16.8-17.6-27.4v-72.1c0-108,82.2-197.6,187.1-209.6c3.2-0.4,7.9,1,10.5,2.9c48.4,35,107.6,55.9,171.7,55.9c64.2,0,123.4-20.9,171.7-55.9c2.6-1.9,7.3-3.2,10.5-2.9c63.7,7.3,118.8,43.2,152.5,94.4c-22.1-8.3-45.9-13-70.9-13C598.9,545.2,507.6,636.5,507.6,748.8z"/></g><g></g><g></g><g></g><g></g><g></g><g></g><g></g><g></g><g></g><g></g><g></g><g></g><g></g><g></g><g></g></g>
</svg>
